{
date = "2015-05-20 06:08:38 +0000";
familyName = "Feedback";
featurePrefixes = (
{
automatic = 1;
code = "languagesystem DFLT dflt;\012languagesystem latn dflt;\012";
name = Languagesystems;
}
);
fontMaster = (
{
ascender = 600;
capHeight = 500;
descender = "-100";
id = "2A1D5BD5-C215-4E1E-88D2-0A6FA643BDC9";
userData = {
GSCornerRadius = 20;
GSOffsetHorizontal = 5;
GSOffsetVertical = 5;
};
xHeight = 320;
}
);
glyphs = (
{
glyphname = uniF000;
lastChange = "2015-05-20 06:40:21 +0000";
layers = (
{
layerId = "2A1D5BD5-C215-4E1E-88D2-0A6FA643BDC9";
name = Regular;
paths = (
{
closed = 1;
nodes = (
"376 464 LINE",
"416 502 LINE",
"511 407 LINE",
"473 367 LINE"
);
},
{
closed = 1;
nodes = (
"0 -2 LINE",
"67 157 LINE",
"67 155 LINE",
"357 445 LINE",
"454 348 LINE",
"163 60 LINE"
);
},
{
closed = 1;
nodes = (
"111 158 LINE",
"126 143 LINE",
"367 385 LINE",
"353 398 LINE"
);
}
);
width = 511;
}
);
unicode = F000;
},
{
glyphname = uniF001;
lastChange = "2015-05-20 06:41:54 +0000";
layers = (
{
layerId = "2A1D5BD5-C215-4E1E-88D2-0A6FA643BDC9";
name = Regular;
paths = (
{
closed = 1;
nodes = (
"459 5 LINE SMOOTH",
"454 0 OFFCURVE",
"445 0 OFFCURVE",
"440 5 CURVE SMOOTH",
"300 145 LINE",
"269 125 OFFCURVE",
"233 113 OFFCURVE",
"193 113 CURVE SMOOTH",
"86 113 OFFCURVE",
"0 199 OFFCURVE",
"0 306 CURVE SMOOTH",
"0 413 OFFCURVE",
"86 499 OFFCURVE",
"193 499 CURVE SMOOTH",
"298 499 OFFCURVE",
"386 413 OFFCURVE",
"386 306 CURVE SMOOTH",
"386 266 OFFCURVE",
"374 230 OFFCURVE",
"354 201 CURVE",
"495 59 LINE SMOOTH",
"499 55 OFFCURVE",
"501 45 OFFCURVE",
"495 40 CURVE SMOOTH"
);
},
{
closed = 1;
nodes = (
"110 454 OFFCURVE",
"45 387 OFFCURVE",
"45 306 CURVE SMOOTH",
"45 224 OFFCURVE",
"110 158 OFFCURVE",
"193 158 CURVE SMOOTH",
"274 158 OFFCURVE",
"341 224 OFFCURVE",
"341 306 CURVE SMOOTH",
"341 387 OFFCURVE",
"274 454 OFFCURVE",
"193 454 CURVE SMOOTH"
);
}
);
width = 600;
}
);
unicode = F001;
},
{
glyphname = uniF002;
lastChange = "2015-05-22 13:16:43 +0000";
layers = (
{
layerId = "2A1D5BD5-C215-4E1E-88D2-0A6FA643BDC9";
name = Regular;
paths = (
{
closed = 1;
nodes = (
"307 501 LINE",
"307 307 LINE",
"503 307 LINE",
"503 195 LINE",
"307 195 LINE",
"307 0 LINE",
"196 0 LINE",
"196 195 LINE",
"0 195 LINE",
"0 307 LINE",
"196 307 LINE",
"196 501 LINE"
);
}
);
width = 503;
}
);
unicode = F002;
},
{
glyphname = uniF003;
lastChange = "2015-05-22 13:17:04 +0000";
layers = (
{
layerId = "2A1D5BD5-C215-4E1E-88D2-0A6FA643BDC9";
name = Regular;
paths = (
{
closed = 1;
nodes = (
"503 307 LINE",
"503 195 LINE",
"0 195 LINE",
"0 307 LINE"
);
}
);
width = 503;
}
);
unicode = F003;
},
{
glyphname = uniF004;
lastChange = "2015-05-22 13:15:54 +0000";
layers = (
{
layerId = "2A1D5BD5-C215-4E1E-88D2-0A6FA643BDC9";
name = Regular;
paths = (
{
closed = 1;
nodes = (
"28 410 OFFCURVE",
"54 436 OFFCURVE",
"80 462 CURVE",
"125 417 OFFCURVE",
"172 370 OFFCURVE",
"217 325 CURVE",
"263 371 OFFCURVE",
"310 418 OFFCURVE",
"356 463 CURVE",
"382 437 OFFCURVE",
"409 410 OFFCURVE",
"435 384 CURVE",
"389 338 OFFCURVE",
"342 292 OFFCURVE",
"296 246 CURVE",
"342 200 OFFCURVE",
"389 153 OFFCURVE",
"434 108 CURVE",
"408 82 OFFCURVE",
"382 55 OFFCURVE",
"356 29 CURVE",
"311 75 OFFCURVE",
"264 121 OFFCURVE",
"218 167 CURVE",
"171 121 OFFCURVE",
"126 75 OFFCURVE",
"79 29 CURVE",
"53 55 OFFCURVE",
"26 82 OFFCURVE",
"0 108 CURVE",
"47 154 OFFCURVE",
"92 200 OFFCURVE",
"139 246 CURVE",
"94 292 OFFCURVE",
"47 338 OFFCURVE",
"2 384 CURVE"
);
}
);
width = 435;
}
);
unicode = F004;
},
{
glyphname = uniF005;
lastChange = "2015-05-20 21:49:22 +0000";
layers = (
{
layerId = "2A1D5BD5-C215-4E1E-88D2-0A6FA643BDC9";
name = Regular;
paths = (
{
closed = 1;
nodes = (
"169 0 LINE",
"169 162 LINE",
"0 162 LINE",
"0 346 LINE",
"169 346 LINE",
"169 500 LINE",
"461 250 LINE"
);
}
);
width = 461;
}
);
unicode = F005;
},
{
glyphname = uniF006;
lastChange = "2015-05-22 13:21:12 +0000";
layers = (
{
layerId = "2A1D5BD5-C215-4E1E-88D2-0A6FA643BDC9";
name = Regular;
paths = (
{
closed = 1;
nodes = (
"292 500 LINE",
"292 346 LINE",
"461 346 LINE",
"461 162 LINE",
"292 162 LINE",
"292 0 LINE",
"0 250 LINE"
);
}
);
width = 461;
}
);
unicode = F006;
},
{
glyphname = uniF007;
lastChange = "2015-05-22 13:20:45 +0000";
layers = (
{
layerId = "2A1D5BD5-C215-4E1E-88D2-0A6FA643BDC9";
name = Regular;
paths = (
{
closed = 1;
nodes = (
"299 -1 LINE",
"299 175 LINE",
"188 172 OFFCURVE",
"86 138 OFFCURVE",
"0 79 CURVE",
"29 224 OFFCURVE",
"150 338 OFFCURVE",
"299 353 CURVE",
"299 501 LINE",
"587 250 LINE"
);
}
);
width = 587;
}
);
unicode = F007;
},
{
glyphname = uniF008;
lastChange = "2015-05-20 21:56:11 +0000";
layers = (
{
layerId = "2A1D5BD5-C215-4E1E-88D2-0A6FA643BDC9";
name = Regular;
paths = (
{
closed = 1;
nodes = (
"534 232 OFFCURVE",
"521 218 OFFCURVE",
"506 203 CURVE SMOOTH",
"421 128 OFFCURVE",
"287 0 OFFCURVE",
"287 0 CURVE SMOOTH",
"287 0 OFFCURVE",
"155 128 OFFCURVE",
"70 203 CURVE SMOOTH",
"53 218 OFFCURVE",
"42 232 OFFCURVE",
"33 248 CURVE",
"12 274 OFFCURVE",
"0 307 OFFCURVE",
"0 342 CURVE SMOOTH",
"0 430 OFFCURVE",
"72 501 OFFCURVE",
"159 501 CURVE SMOOTH",
"212 501 OFFCURVE",
"259 475 OFFCURVE",
"287 435 CURVE",
"316 475 OFFCURVE",
"363 501 OFFCURVE",
"417 501 CURVE SMOOTH",
"504 501 OFFCURVE",
"575 430 OFFCURVE",
"575 342 CURVE SMOOTH",
"575 307 OFFCURVE",
"563 274 OFFCURVE",
"544 248 CURVE"
);
}
);
width = 575;
}
);
unicode = F008;
},
{
glyphname = uniF009;
lastChange = "2015-05-22 08:11:01 +0000";
layers = (
{
layerId = "2A1D5BD5-C215-4E1E-88D2-0A6FA643BDC9";
name = Regular;
paths = (
{
closed = 1;
nodes = (
"512 284 OFFCURVE",
"532 310 OFFCURVE",
"532 339 CURVE SMOOTH",
"532 411 OFFCURVE",
"484 459 OFFCURVE",
"413 459 CURVE SMOOTH",
"369 459 OFFCURVE",
"310 408 OFFCURVE",
"286 365 CURVE",
"264 408 OFFCURVE",
"205 459 OFFCURVE",
"162 459 CURVE SMOOTH",
"91 459 OFFCURVE",
"42 411 OFFCURVE",
"42 339 CURVE SMOOTH",
"42 310 OFFCURVE",
"62 284 OFFCURVE",
"79 262 CURVE",
"86 249 OFFCURVE",
"95 238 OFFCURVE",
"109 226 CURVE SMOOTH",
"179 164 OFFCURVE",
"286 60 OFFCURVE",
"286 60 CURVE SMOOTH",
"286 60 OFFCURVE",
"396 164 OFFCURVE",
"465 226 CURVE SMOOTH",
"478 238 OFFCURVE",
"488 249 OFFCURVE",
"496 262 CURVE"
);
},
{
closed = 1;
nodes = (
"534 232 OFFCURVE",
"521 218 OFFCURVE",
"506 203 CURVE SMOOTH",
"421 128 OFFCURVE",
"287 0 OFFCURVE",
"287 0 CURVE SMOOTH",
"287 0 OFFCURVE",
"155 128 OFFCURVE",
"70 203 CURVE SMOOTH",
"53 218 OFFCURVE",
"42 232 OFFCURVE",
"33 248 CURVE",
"12 274 OFFCURVE",
"0 307 OFFCURVE",
"0 342 CURVE SMOOTH",
"0 430 OFFCURVE",
"72 501 OFFCURVE",
"159 501 CURVE SMOOTH",
"212 501 OFFCURVE",
"259 475 OFFCURVE",
"287 435 CURVE",
"316 475 OFFCURVE",
"363 501 OFFCURVE",
"417 501 CURVE SMOOTH",
"504 501 OFFCURVE",
"575 430 OFFCURVE",
"575 342 CURVE SMOOTH",
"575 307 OFFCURVE",
"563 274 OFFCURVE",
"544 248 CURVE"
);
}
);
width = 575;
}
);
unicode = F009;
},
{
glyphname = uniF00A;
lastChange = "2015-05-22 13:21:54 +0000";
layers = (
{
layerId = "2A1D5BD5-C215-4E1E-88D2-0A6FA643BDC9";
name = Regular;
paths = (
{
closed = 1;
nodes = (
"387 1 OFFCURVE",
"499 113 OFFCURVE",
"499 251 CURVE SMOOTH",
"499 388 OFFCURVE",
"387 500 OFFCURVE",
"250 500 CURVE SMOOTH",
"112 500 OFFCURVE",
"0 388 OFFCURVE",
"0 251 CURVE SMOOTH",
"0 113 OFFCURVE",
"112 1 OFFCURVE",
"250 1 CURVE SMOOTH"
);
},
{
closed = 1;
nodes = (
"138 274 OFFCURVE",
"116 295 OFFCURVE",
"116 322 CURVE SMOOTH",
"116 348 OFFCURVE",
"137 369 OFFCURVE",
"164 369 CURVE SMOOTH",
"190 369 OFFCURVE",
"211 348 OFFCURVE",
"211 322 CURVE SMOOTH",
"211 295 OFFCURVE",
"190 274 OFFCURVE",
"164 274 CURVE SMOOTH"
);
},
{
closed = 1;
nodes = (
"309 274 OFFCURVE",
"287 295 OFFCURVE",
"287 322 CURVE SMOOTH",
"287 348 OFFCURVE",
"309 369 OFFCURVE",
"335 369 CURVE SMOOTH",
"361 369 OFFCURVE",
"382 348 OFFCURVE",
"382 322 CURVE SMOOTH",
"382 295 OFFCURVE",
"361 274 OFFCURVE",
"335 274 CURVE SMOOTH"
);
},
{
closed = 1;
nodes = (
"352 173 LINE",
"300 122 LINE",
"250 173 LINE",
"198 122 LINE",
"148 173 LINE",
"117 142 LINE",
"92 167 LINE",
"148 223 LINE",
"199 172 LINE",
"250 223 LINE",
"301 172 LINE",
"352 223 LINE",
"407 167 LINE",
"382 142 LINE"
);
}
);
width = 499;
}
);
unicode = F00A;
},
{
glyphname = uniF00B;
lastChange = "2015-05-22 08:21:36 +0000";
layers = (
{
layerId = "2A1D5BD5-C215-4E1E-88D2-0A6FA643BDC9";
name = Regular;
paths = (
{
closed = 1;
nodes = (
"331 316 LINE",
"529 311 LINE",
"372 190 LINE",
"428 0 LINE",
"265 112 LINE",
"101 0 LINE",
"158 190 LINE",
"0 311 LINE",
"199 316 LINE",
"265 503 LINE"
);
}
);
width = 529;
}
);
unicode = F00B;
},
{
glyphname = uniF00C;
lastChange = "2015-05-22 08:22:03 +0000";
layers = (
{
layerId = "2A1D5BD5-C215-4E1E-88D2-0A6FA643BDC9";
name = Regular;
paths = (
{
closed = 1;
nodes = (
"329 314 LINE",
"526 309 LINE",
"370 189 LINE",
"426 0 LINE",
"264 112 LINE",
"101 0 LINE",
"157 189 LINE",
"0 309 LINE",
"198 314 LINE",
"264 500 LINE"
);
},
{
closed = 1;
nodes = (
"222 281 LINE",
"82 282 LINE",
"197 201 LINE",
"152 69 LINE",
"264 152 LINE",
"376 69 LINE",
"331 201 LINE",
"446 282 LINE",
"305 281 LINE",
"264 413 LINE"
);
}
);
width = 526;
}
);
unicode = F00C;
},
{
glyphname = uniF00D;
lastChange = "2015-05-22 11:49:23 +0000";
layers = (
{
layerId = "2A1D5BD5-C215-4E1E-88D2-0A6FA643BDC9";
name = Regular;
paths = (
{
closed = 1;
nodes = (
"485 58 OFFCURVE",
"472 80 OFFCURVE",
"449 81 CURVE",
"431 90 LINE",
"410 94 OFFCURVE",
"387 99 OFFCURVE",
"367 106 CURVE",
"357 109 OFFCURVE",
"348 112 OFFCURVE",
"339 118 CURVE",
"334 122 OFFCURVE",
"330 127 OFFCURVE",
"329 135 CURVE SMOOTH",
"328 142 OFFCURVE",
"331 163 OFFCURVE",
"335 173 CURVE",
"340 179 OFFCURVE",
"346 188 OFFCURVE",
"351 195 CURVE",
"358 206 OFFCURVE",
"364 223 OFFCURVE",
"366 239 CURVE",
"386 239 OFFCURVE",
"394 276 OFFCURVE",
"397 294 CURVE",
"398 305 OFFCURVE",
"397 321 OFFCURVE",
"384 315 CURVE",
"398 387 OFFCURVE",
"375 443 OFFCURVE",
"335 474 CURVE",
"326 481 OFFCURVE",
"315 490 OFFCURVE",
"302 494 CURVE",
"275 505 OFFCURVE",
"220 504 OFFCURVE",
"197 491 CURVE",
"141 464 OFFCURVE",
"104 401 OFFCURVE",
"121 315 CURVE",
"109 321 OFFCURVE",
"106 305 OFFCURVE",
"109 294 CURVE",
"111 276 OFFCURVE",
"120 239 OFFCURVE",
"140 239 CURVE",
"140 225 OFFCURVE",
"147 209 OFFCURVE",
"153 198 CURVE SMOOTH",
"157 188 OFFCURVE",
"163 179 OFFCURVE",
"169 170 CURVE",
"174 129 OFFCURVE",
"174.903 128.772 OFFCURVE",
"172 122 CURVE",
"165 116 OFFCURVE",
"151 110 OFFCURVE",
"142 107 CURVE SMOOTH",
"98 91 LINE",
"70 85 LINE",
"43 77 OFFCURVE",
"26 63 OFFCURVE",
"13 42 CURVE",
"4 25 LINE",
"0 1 LINE",
"507 1 LINE",
"505 22 OFFCURVE",
"498 35 OFFCURVE",
"496 39 CURVE"
);
}
);
width = 507;
}
);
unicode = F00D;
},
{
glyphname = uniF00E;
lastChange = "2015-05-22 11:49:18 +0000";
layers = (
{
layerId = "2A1D5BD5-C215-4E1E-88D2-0A6FA643BDC9";
name = Regular;
paths = (
{
closed = 1;
nodes = (
"0 0 LINE",
"0 18 OFFCURVE",
"5 31 OFFCURVE",
"12 42 CURVE SMOOTH",
"15 48 OFFCURVE",
"18 54 OFFCURVE",
"22 60 CURVE SMOOTH",
"36 80 OFFCURVE",
"55 95 OFFCURVE",
"81 103 CURVE SMOOTH",
"90 107 OFFCURVE",
"102 108 OFFCURVE",
"113 110 CURVE SMOOTH",
"135 115 OFFCURVE",
"157 121 OFFCURVE",
"174 129 CURVE",
"174 138 OFFCURVE",
"176 149 OFFCURVE",
"174 157 CURVE",
"174 164 LINE",
"168 174 LINE SMOOTH",
"164 179 OFFCURVE",
"160 185 OFFCURVE",
"156 192 CURVE SMOOTH",
"153 198 OFFCURVE",
"150 206 OFFCURVE",
"148 213 CURVE",
"144 223 LINE",
"141 226 LINE SMOOTH",
"138 228 OFFCURVE",
"136 231 OFFCURVE",
"134 234 CURVE SMOOTH",
"126 244 OFFCURVE",
"122 254 OFFCURVE",
"117 267 CURVE SMOOTH",
"114 279 OFFCURVE",
"111 296 OFFCURVE",
"115 310 CURVE SMOOTH",
"116 314 OFFCURVE",
"117 317 OFFCURVE",
"119 320 CURVE",
"123 324 LINE",
"123 327 OFFCURVE",
"122 329 OFFCURVE",
"122 331 CURVE SMOOTH",
"122 347 LINE SMOOTH",
"122 361 OFFCURVE",
"123 374 OFFCURVE",
"126 385 CURVE SMOOTH",
"138 436 OFFCURVE",
"170 474 OFFCURVE",
"215 492 CURVE SMOOTH",
"226 496 OFFCURVE",
"238 496 OFFCURVE",
"252 498 CURVE SMOOTH",
"256 499 OFFCURVE",
"262 498 OFFCURVE",
"266 498 CURVE SMOOTH",
"279 498 LINE",
"290 497 OFFCURVE",
"298 496 OFFCURVE",
"307 494 CURVE SMOOTH",
"355 483 OFFCURVE",
"389 445 OFFCURVE",
"404 401 CURVE SMOOTH",
"410 385 OFFCURVE",
"413 368 OFFCURVE",
"413 346 CURVE SMOOTH",
"413 343 OFFCURVE",
"413 326 OFFCURVE",
"412 324 CURVE",
"413 323 OFFCURVE",
"414 322 OFFCURVE",
"414 320 CURVE",
"416 318 OFFCURVE",
"418 315 OFFCURVE",
"419 310 CURVE SMOOTH",
"422 300 OFFCURVE",
"420 283 OFFCURVE",
"417 273 CURVE SMOOTH",
"414 259 OFFCURVE",
"408 245 OFFCURVE",
"401 234 CURVE",
"399 232 OFFCURVE",
"397 228 OFFCURVE",
"393 226 CURVE",
"392 225 OFFCURVE",
"391 224 OFFCURVE",
"389 223 CURVE",
"389 220 OFFCURVE",
"388 218 OFFCURVE",
"387 214 CURVE SMOOTH",
"385 208 OFFCURVE",
"383 203 OFFCURVE",
"379 196 CURVE SMOOTH",
"376 189 OFFCURVE",
"372 180 OFFCURVE",
"366 174 CURVE SMOOTH",
"362 167 LINE",
"362 166 OFFCURVE",
"361 165 OFFCURVE",
"360 165 CURVE",
"360 157 LINE",
"359 149 OFFCURVE",
"360 139 OFFCURVE",
"360 129 CURVE",
"377 122 OFFCURVE",
"398 116 OFFCURVE",
"418 111 CURVE SMOOTH",
"430 108 OFFCURVE",
"444 107 OFFCURVE",
"456 102 CURVE SMOOTH",
"487 92 OFFCURVE",
"507 72 OFFCURVE",
"522 45 CURVE SMOOTH",
"528 32 OFFCURVE",
"535 19 OFFCURVE",
"535 0 CURVE"
);
},
{
closed = 1;
nodes = (
"168 230 OFFCURVE",
"174 214 OFFCURVE",
"179 206 CURVE SMOOTH",
"192 179 OFFCURVE",
"210 157 OFFCURVE",
"238 145 CURVE SMOOTH",
"248 141 OFFCURVE",
"264 138 OFFCURVE",
"278 140 CURVE SMOOTH",
"316 149 OFFCURVE",
"337 174 OFFCURVE",
"353 203 CURVE SMOOTH",
"359 212 OFFCURVE",
"365 227 OFFCURVE",
"366 241 CURVE",
"384 241 OFFCURVE",
"391 273 OFFCURVE",
"393 290 CURVE SMOOTH",
"396 300 OFFCURVE",
"393 314 OFFCURVE",
"383 308 CURVE",
"396 372 OFFCURVE",
"375 420 OFFCURVE",
"341 448 CURVE SMOOTH",
"331 455 OFFCURVE",
"321 461 OFFCURVE",
"310 466 CURVE SMOOTH",
"287 475 OFFCURVE",
"238 473 OFFCURVE",
"218 464 CURVE SMOOTH",
"169 440 OFFCURVE",
"136 385 OFFCURVE",
"151 308 CURVE",
"140 314 OFFCURVE",
"139 300 OFFCURVE",
"140 290 CURVE SMOOTH",
"142 273 OFFCURVE",
"151 241 OFFCURVE",
"168 241 CURVE"
);
},
{
closed = 1;
nodes = (
"330 136 OFFCURVE",
"324 134 OFFCURVE",
"321 130 CURVE SMOOTH",
"302 119 OFFCURVE",
"275 110 OFFCURVE",
"245 117 CURVE SMOOTH",
"233 120 OFFCURVE",
"222 125 OFFCURVE",
"212 131 CURVE SMOOTH",
"209 134 OFFCURVE",
"205 136 OFFCURVE",
"201 139 CURVE",
"201 130 OFFCURVE",
"201 121 OFFCURVE",
"198 115 CURVE SMOOTH",
"194 108 OFFCURVE",
"181 103 OFFCURVE",
"172 100 CURVE SMOOTH",
"157 94 OFFCURVE",
"139 89 OFFCURVE",
"121 85 CURVE SMOOTH",
"112 83 OFFCURVE",
"102 82 OFFCURVE",
"94 80 CURVE",
"68 72 OFFCURVE",
"53 59 OFFCURVE",
"40 39 CURVE SMOOTH",
"36 33 OFFCURVE",
"33 28 OFFCURVE",
"31 23 CURVE",
"503 23 LINE",
"497 35 LINE SMOOTH",
"486 54 OFFCURVE",
"472 68 OFFCURVE",
"452 75 CURVE SMOOTH",
"442 80 OFFCURVE",
"430 82 OFFCURVE",
"418 84 CURVE SMOOTH",
"399 88 OFFCURVE",
"380 93 OFFCURVE",
"363 99 CURVE SMOOTH",
"355 102 OFFCURVE",
"347 106 OFFCURVE",
"341 111 CURVE SMOOTH",
"335 115 OFFCURVE",
"335 121 OFFCURVE",
"334 128 CURVE",
"333 133 OFFCURVE",
"333 136 OFFCURVE",
"333 139 CURVE"
);
}
);
width = 535;
}
);
unicode = F00E;
},
{
glyphname = uniF00F;
lastChange = "2015-05-21 16:13:53 +0000";
layers = (
{
layerId = "2A1D5BD5-C215-4E1E-88D2-0A6FA643BDC9";
name = Regular;
paths = (
{
closed = 1;
nodes = (
"578.73 500 LINE",
"25.1936 500 LINE",
"307 248 LINE"
);
},
{
closed = 1;
nodes = (
"308 205 LINE",
"0 469.788 LINE",
"0 0 LINE",
"600 0 LINE",
"600 481.773 LINE"
);
}
);
width = 600;
}
);
unicode = F00F;
},
{
glyphname = uniF010;
lastChange = "2015-05-22 08:21:00 +0000";
layers = (
{
layerId = "2A1D5BD5-C215-4E1E-88D2-0A6FA643BDC9";
name = Regular;
paths = (
{
closed = 1;
nodes = (
"0 500 LINE",
"0 0 LINE",
"600 0 LINE",
"600 500 LINE"
);
},
{
closed = 1;
nodes = (
"543.381 467 LINE",
"307 248 LINE",
"61.9286 467 LINE"
);
},
{
closed = 1;
nodes = (
"566 31 LINE",
"35 31 LINE",
"35 439.886 LINE",
"308 205 LINE",
"566 449.747 LINE"
);
}
);
width = 600;
}
);
unicode = F010;
},
{
glyphname = uniF011;
lastChange = "2015-05-22 13:27:08 +0000";
layers = (
{
layerId = "2A1D5BD5-C215-4E1E-88D2-0A6FA643BDC9";
name = Regular;
paths = (
{
closed = 1;
nodes = (
"487 470 OFFCURVE",
"491 464 OFFCURVE",
"495 455 CURVE SMOOTH",
"503 434 OFFCURVE",
"496 397 OFFCURVE",
"463 386 CURVE SMOOTH",
"446 381 OFFCURVE",
"414 383 OFFCURVE",
"410 356 CURVE SMOOTH",
"406 332 OFFCURVE",
"447 302 OFFCURVE",
"470 278 CURVE SMOOTH",
"477 271 OFFCURVE",
"485 262 OFFCURVE",
"488 255 CURVE SMOOTH",
"491 250 OFFCURVE",
"489 242 OFFCURVE",
"487 237 CURVE SMOOTH",
"484 231 OFFCURVE",
"478 226 OFFCURVE",
"472 221 CURVE SMOOTH",
"462 210 OFFCURVE",
"451 200 OFFCURVE",
"439 189 CURVE SMOOTH",
"430 179 OFFCURVE",
"417 163 OFFCURVE",
"406 157 CURVE SMOOTH",
"386 150 OFFCURVE",
"388 175 OFFCURVE",
"386 185 CURVE SMOOTH",
"385 192 OFFCURVE",
"381 198 OFFCURVE",
"377 205 CURVE SMOOTH",
"355 238 OFFCURVE",
"307 237 OFFCURVE",
"285 205 CURVE SMOOTH",
"265 181 OFFCURVE",
"262 155 OFFCURVE",
"281 131 CURVE SMOOTH",
"289 120 OFFCURVE",
"300 115 OFFCURVE",
"310 113 CURVE SMOOTH",
"320 110 OFFCURVE",
"351 111 OFFCURVE",
"339 89 CURVE SMOOTH",
"335 82 OFFCURVE",
"324 73 OFFCURVE",
"318 66 CURVE",
"304 53 OFFCURVE",
"291 40 OFFCURVE",
"278 27 CURVE SMOOTH",
"271 20 OFFCURVE",
"265 12 OFFCURVE",
"258 9 CURVE SMOOTH",
"252 7 OFFCURVE",
"239 6 OFFCURVE",
"234 11 CURVE SMOOTH",
"229 16 OFFCURVE",
"225 22 OFFCURVE",
"220 27 CURVE SMOOTH",
"197 49 OFFCURVE",
"164 90 OFFCURVE",
"142 86 CURVE SMOOTH",
"135 85 OFFCURVE",
"125 79 OFFCURVE",
"121 70 CURVE SMOOTH",
"114 54 OFFCURVE",
"117 40 OFFCURVE",
"106 23 CURVE SMOOTH",
"92 -1 OFFCURVE",
"65 -2 OFFCURVE",
"47 2 CURVE SMOOTH",
"33 6 OFFCURVE",
"28 10 OFFCURVE",
"18 20 CURVE SMOOTH",
"-3 45 OFFCURVE",
"-6 65 OFFCURVE",
"10 93 CURVE SMOOTH",
"17 105 OFFCURVE",
"26 108 OFFCURVE",
"32 110 CURVE SMOOTH",
"48 116 OFFCURVE",
"74 113 OFFCURVE",
"85 134 CURVE SMOOTH",
"94 152 OFFCURVE",
"77 168 OFFCURVE",
"59 188 CURVE SMOOTH",
"47 201 OFFCURVE",
"13 229 OFFCURVE",
"10 238 CURVE SMOOTH",
"7 245 OFFCURVE",
"7 251 OFFCURVE",
"10 257 CURVE SMOOTH",
"13 265 OFFCURVE",
"78 331 OFFCURVE",
"90 338 CURVE SMOOTH",
"94 341 OFFCURVE",
"98 342 OFFCURVE",
"102 340 CURVE SMOOTH",
"113 335 OFFCURVE",
"111 322 OFFCURVE",
"111 313 CURVE SMOOTH",
"111 307 OFFCURVE",
"114 301 OFFCURVE",
"117 296 CURVE SMOOTH",
"138 259 OFFCURVE",
"188 264 OFFCURVE",
"212 299 CURVE SMOOTH",
"229 321 OFFCURVE",
"232 346 OFFCURVE",
"215 369 CURVE SMOOTH",
"204 383 OFFCURVE",
"188 387 OFFCURVE",
"176 389 CURVE SMOOTH",
"171 390 OFFCURVE",
"166 389 OFFCURVE",
"160 391 CURVE SMOOTH",
"154 395 OFFCURVE",
"155 400 OFFCURVE",
"158 406 CURVE SMOOTH",
"161 412 OFFCURVE",
"170 419 OFFCURVE",
"176 426 CURVE SMOOTH",
"189 439 OFFCURVE",
"203 452 OFFCURVE",
"217 467 CURVE SMOOTH",
"224 473 OFFCURVE",
"232 484 OFFCURVE",
"240 488 CURVE SMOOTH",
"246 490 OFFCURVE",
"254 489 OFFCURVE",
"261 485 CURVE",
"268 480 OFFCURVE",
"271 476 OFFCURVE",
"278 469 CURVE SMOOTH",
"301 446 OFFCURVE",
"331 407 OFFCURVE",
"353 410 CURVE SMOOTH",
"382 414 OFFCURVE",
"380 449 OFFCURVE",
"386 467 CURVE SMOOTH",
"402 508 OFFCURVE",
"452 506 OFFCURVE",
"479 479 CURVE"
);
}
);
width = 498;
}
);
unicode = F011;
},
{
glyphname = uniF012;
lastChange = "2015-05-22 08:04:31 +0000";
layers = (
{
layerId = "2A1D5BD5-C215-4E1E-88D2-0A6FA643BDC9";
name = Regular;
paths = (
{
closed = 1;
nodes = (
"0 305 LINE",
"110 197 LINE",
"114 197 LINE",
"114 305 LINE",
"224 197 LINE",
"228 197 LINE",
"228 305 LINE",
"338 197 LINE",
"402 197 LINE",
"402 386 LINE",
"477 386 LINE",
"477 1 LINE",
"0 1 LINE"
);
},
{
closed = 1;
nodes = (
"98 119 LINE",
"98 81 LINE",
"135 81 LINE",
"135 119 LINE"
);
},
{
closed = 1;
nodes = (
"212 119 LINE",
"212 81 LINE",
"249 81 LINE",
"249 119 LINE"
);
},
{
closed = 1;
nodes = (
"326 119 LINE",
"326 81 LINE",
"363 81 LINE",
"363 119 LINE"
);
},
{
closed = 1;
nodes = (
"419 361 LINE",
"419 347 LINE",
"462 347 LINE",
"462 361 LINE"
);
},
{
closed = 1;
nodes = (
"280 434 OFFCURVE",
"270 425 OFFCURVE",
"259 425 CURVE SMOOTH",
"249 425 OFFCURVE",
"241 429 OFFCURVE",
"237 438 CURVE SMOOTH",
"232 448 OFFCURVE",
"226 467 OFFCURVE",
"218 473 CURVE SMOOTH",
"208 485 OFFCURVE",
"191 496 OFFCURVE",
"160 500 CURVE SMOOTH",
"131 504 OFFCURVE",
"104 496 OFFCURVE",
"102 496 CURVE SMOOTH",
"85 494 OFFCURVE",
"63 483 OFFCURVE",
"67 475 CURVE SMOOTH",
"73 463 OFFCURVE",
"96 460 OFFCURVE",
"108 458 CURVE SMOOTH",
"124 456 OFFCURVE",
"141 458 OFFCURVE",
"156 454 CURVE SMOOTH",
"170 450 OFFCURVE",
"185 425 OFFCURVE",
"193 407 CURVE SMOOTH",
"203 390 OFFCURVE",
"222 371 OFFCURVE",
"257 371 CURVE SMOOTH",
"259 371 LINE SMOOTH",
"305 374 OFFCURVE",
"317 405 OFFCURVE",
"334 425 CURVE SMOOTH",
"344 438 OFFCURVE",
"357 450 OFFCURVE",
"369 452 CURVE SMOOTH",
"390 454 OFFCURVE",
"406 450 OFFCURVE",
"417 427 CURVE",
"421 417 OFFCURVE",
"421 400 OFFCURVE",
"433 400 CURVE",
"446 400 OFFCURVE",
"448 419 OFFCURVE",
"450 425 CURVE",
"450 440 OFFCURVE",
"450 454 OFFCURVE",
"440 469 CURVE SMOOTH",
"427 492 OFFCURVE",
"400 502 OFFCURVE",
"369 500 CURVE SMOOTH",
"315 496 OFFCURVE",
"293 452 OFFCURVE",
"284 442 CURVE"
);
}
);
width = 477;
}
);
unicode = F012;
},
{
glyphname = uniF013;
lastChange = "2015-05-22 14:12:26 +0000";
layers = (
{
layerId = "2A1D5BD5-C215-4E1E-88D2-0A6FA643BDC9";
name = Regular;
paths = (
{
closed = 1;
nodes = (
"447 31 LINE",
"447 167 LINE",
"30 167 LINE",
"30 31 LINE"
);
},
{
closed = 1;
nodes = (
"0 305 LINE",
"110 197 LINE",
"114 197 LINE",
"114 305 LINE",
"224 197 LINE",
"228 197 LINE",
"228 305 LINE",
"338 197 LINE",
"402 197 LINE",
"402 386 LINE",
"477 386 LINE",
"477 1 LINE",
"0 1 LINE"
);
},
{
closed = 1;
nodes = (
"419 361 LINE",
"419 347 LINE",
"462 347 LINE",
"462 361 LINE"
);
},
{
closed = 1;
nodes = (
"98 119 LINE",
"98 81 LINE",
"135 81 LINE",
"135 119 LINE"
);
},
{
closed = 1;
nodes = (
"212 119 LINE",
"212 81 LINE",
"249 81 LINE",
"249 119 LINE"
);
},
{
closed = 1;
nodes = (
"326 119 LINE",
"326 81 LINE",
"363 81 LINE",
"363 119 LINE"
);
}
);
width = 477;
}
);
unicode = F013;
},
{
glyphname = uniF014;
lastChange = "2015-05-22 13:27:15 +0000";
layers = (
{
layerId = "2A1D5BD5-C215-4E1E-88D2-0A6FA643BDC9";
name = Regular;
paths = (
{
closed = 1;
nodes = (
"404 498 OFFCURVE",
"394 497 OFFCURVE",
"376 490 CURVE SMOOTH",
"327 471 OFFCURVE",
"282 416 OFFCURVE",
"299 344 CURVE",
"199 348 OFFCURVE",
"131 392 OFFCURVE",
"74 440 CURVE SMOOTH",
"63 451 OFFCURVE",
"50 462 OFFCURVE",
"42 475 CURVE",
"35 464 OFFCURVE",
"29 452 OFFCURVE",
"26 436 CURVE SMOOTH",
"15 378 OFFCURVE",
"46 329 OFFCURVE",
"81 309 CURVE",
"63 305 OFFCURVE",
"35 320 OFFCURVE",
"24 324 CURVE",
"22 263 OFFCURVE",
"70 206 OFFCURVE",
"125 200 CURVE",
"110 196 OFFCURVE",
"85 193 OFFCURVE",
"68 198 CURVE",
"74 161 OFFCURVE",
"117 121 OFFCURVE",
"151 115 CURVE SMOOTH",
"162 113 OFFCURVE",
"172 110 OFFCURVE",
"184 110 CURVE",
"140 82 OFFCURVE",
"79 45 OFFCURVE",
"0 58 CURVE",
"7 51 OFFCURVE",
"36 39 OFFCURVE",
"48 34 CURVE SMOOTH",
"111 6 OFFCURVE",
"199 -8 OFFCURVE",
"280 12 CURVE SMOOTH",
"408 47 OFFCURVE",
"494 132 OFFCURVE",
"533 259 CURVE SMOOTH",
"539 283 OFFCURVE",
"544 307 OFFCURVE",
"546 335 CURVE",
"547 347 OFFCURVE",
"548 365 OFFCURVE",
"548 375 CURVE",
"570 388 OFFCURVE",
"596 416 OFFCURVE",
"609 440 CURVE",
"588 431 OFFCURVE",
"566 423 OFFCURVE",
"539 420 CURVE",
"561 438 OFFCURVE",
"583 455 OFFCURVE",
"592 488 CURVE",
"572 479 OFFCURVE",
"555 471 OFFCURVE",
"531 464 CURVE",
"524 462 OFFCURVE",
"520 460 OFFCURVE",
"513 460 CURVE",
"494 484 OFFCURVE",
"472 500 OFFCURVE",
"415 499 CURVE"
);
}
);
width = 609;
}
);
unicode = F014;
},
{
glyphname = uniF015;
lastChange = "2015-05-22 15:43:18 +0000";
layers = (
{
layerId = "2A1D5BD5-C215-4E1E-88D2-0A6FA643BDC9";
name = Regular;
paths = (
{
closed = 1;
nodes = (
"501 119 LINE",
"501 393 LINE",
"501 444 LINE SMOOTH",
"501 454 OFFCURVE",
"502 466 OFFCURVE",
"500 473 CURVE",
"497 481 OFFCURVE",
"492 488 OFFCURVE",
"486 494 CURVE",
"473 502 OFFCURVE",
"459 501 OFFCURVE",
"439 501 CURVE SMOOTH",
"360 501 LINE",
"37 501 LINE SMOOTH",
"34 501 OFFCURVE",
"31 500 OFFCURVE",
"28 500 CURVE",
"18 497 OFFCURVE",
"8 488 OFFCURVE",
"4 479 CURVE",
"-1 469 OFFCURVE",
"0 453 OFFCURVE",
"0 438 CURVE SMOOTH",
"0 386 LINE",
"0 145 LINE",
"0 69 LINE SMOOTH",
"0 58 OFFCURVE",
"-1 41 OFFCURVE",
"1 31 CURVE",
"5 15 OFFCURVE",
"17 4 OFFCURVE",
"33 1 CURVE",
"41 -1 OFFCURVE",
"52 0 OFFCURVE",
"61 0 CURVE SMOOTH",
"107 0 LINE",
"269 0 LINE",
"269 217 LINE",
"205 217 LINE",
"205 285 LINE",
"269 285 LINE",
"269 339 OFFCURVE",
"268 351 OFFCURVE",
"270 362 CURVE SMOOTH",
"277 403 OFFCURVE",
"302 430 OFFCURVE",
"345 437 CURVE",
"368 442 OFFCURVE",
"397 437 OFFCURVE",
"416 435 CURVE",
"416 375 LINE",
"383 375 LINE SMOOTH",
"355 375 OFFCURVE",
"343 368 OFFCURVE",
"340 348 CURVE",
"339 285 LINE",
"414 285 LINE",
"404 217 LINE",
"339 217 LINE",
"339 0 LINE",
"382 0 LINE",
"441 0 LINE SMOOTH",
"451 0 OFFCURVE",
"463 -1 OFFCURVE",
"471 1 CURVE SMOOTH",
"478 3 OFFCURVE",
"484 6 OFFCURVE",
"489 10 CURVE",
"494 15 OFFCURVE",
"498 23 OFFCURVE",
"500 30 CURVE SMOOTH",
"502 38 OFFCURVE",
"501 50 OFFCURVE",
"501 61 CURVE SMOOTH"
);
}
);
width = 501;
}
);
unicode = F015;
},
{
glyphname = uniF016;
lastChange = "2015-05-22 11:48:55 +0000";
layers = (
{
layerId = "2A1D5BD5-C215-4E1E-88D2-0A6FA643BDC9";
name = Regular;
paths = (
{
closed = 1;
nodes = (
"68 0 LINE SMOOTH",
"30 0 OFFCURVE",
"0 30 OFFCURVE",
"0 68 CURVE SMOOTH",
"0 341 LINE SMOOTH",
"0 379 OFFCURVE",
"30 410 OFFCURVE",
"68 410 CURVE SMOOTH",
"148 410 LINE",
"148 375 LINE",
"81 375 LINE SMOOTH",
"56 375 OFFCURVE",
"35 354 OFFCURVE",
"35 329 CURVE SMOOTH",
"35 81 LINE SMOOTH",
"35 56 OFFCURVE",
"56 35 OFFCURVE",
"81 35 CURVE SMOOTH",
"329 35 LINE SMOOTH",
"355 35 OFFCURVE",
"375 56 OFFCURVE",
"375 81 CURVE SMOOTH",
"375 329 LINE SMOOTH",
"375 354 OFFCURVE",
"355 375 OFFCURVE",
"329 375 CURVE SMOOTH",
"262 375 LINE",
"262 410 LINE",
"341 410 LINE SMOOTH",
"381 410 OFFCURVE",
"410 379 OFFCURVE",
"410 341 CURVE SMOOTH",
"410 68 LINE SMOOTH",
"410 30 OFFCURVE",
"381 0 OFFCURVE",
"341 0 CURVE SMOOTH"
);
},
{
closed = 1;
nodes = (
"182 284 LINE",
"182 490 LINE",
"114 490 LINE",
"205 604 LINE",
"296 490 LINE",
"228 490 LINE",
"228 284 LINE"
);
}
);
width = 410;
}
);
unicode = F016;
},
{
glyphname = uniF017;
lastChange = "2015-05-22 11:47:52 +0000";
layers = (
{
layerId = "2A1D5BD5-C215-4E1E-88D2-0A6FA643BDC9";
name = Regular;
paths = (
{
closed = 1;
nodes = (
"243 420 LINE",
"229 423 OFFCURVE",
"215 420 OFFCURVE",
"208 417 CURVE SMOOTH",
"168 393 OFFCURVE",
"184 321 OFFCURVE",
"243 335 CURVE",
"243 256 LINE",
"138 256 LINE",
"141 249 OFFCURVE",
"144 246 OFFCURVE",
"147 239 CURVE",
"157 218 OFFCURVE",
"141 202 OFFCURVE",
"122 202 CURVE SMOOTH",
"105 199 OFFCURVE",
"89 218 OFFCURVE",
"92 236 CURVE SMOOTH",
"95 246 OFFCURVE",
"102 249 OFFCURVE",
"105 256 CURVE",
"0 256 LINE",
"0 410 LINE SMOOTH",
"0 441 OFFCURVE",
"-3 464 OFFCURVE",
"13 482 CURVE SMOOTH",
"28 503 OFFCURVE",
"52 499 OFFCURVE",
"85 499 CURVE SMOOTH",
"243 499 LINE"
);
},
{
closed = 1;
nodes = (
"413 499 LINE SMOOTH",
"448 499 OFFCURVE",
"472 503 OFFCURVE",
"488 482 CURVE SMOOTH",
"502 464 OFFCURVE",
"499 441 OFFCURVE",
"499 410 CURVE SMOOTH",
"499 256 LINE",
"423 256 LINE",
"433 318 OFFCURVE",
"356 335 OFFCURVE",
"337 288 CURVE SMOOTH",
"334 280 OFFCURVE",
"331 267 OFFCURVE",
"334 256 CURVE",
"260 256 LINE",
"260 362 LINE",
"253 358 OFFCURVE",
"246 352 OFFCURVE",
"236 349 CURVE SMOOTH",
"218 344 OFFCURVE",
"198 362 OFFCURVE",
"202 380 CURVE SMOOTH",
"205 396 OFFCURVE",
"218 414 OFFCURVE",
"240 403 CURVE SMOOTH",
"246 400 OFFCURVE",
"253 396 OFFCURVE",
"260 393 CURVE",
"260 499 LINE"
);
},
{
closed = 1;
nodes = (
"499 86 LINE SMOOTH",
"499 51 OFFCURVE",
"502 27 OFFCURVE",
"485 10 CURVE SMOOTH",
"468 -3 OFFCURVE",
"440 0 OFFCURVE",
"410 0 CURVE SMOOTH",
"260 0 LINE",
"260 75 LINE",
"270 72 OFFCURVE",
"283 75 OFFCURVE",
"291 79 CURVE SMOOTH",
"334 102 OFFCURVE",
"313 178 OFFCURVE",
"260 164 CURVE",
"260 239 LINE",
"362 239 LINE",
"359 249 OFFCURVE",
"352 252 OFFCURVE",
"352 263 CURVE SMOOTH",
"345 284 OFFCURVE",
"365 304 OFFCURVE",
"386 298 CURVE SMOOTH",
"399 291 OFFCURVE",
"413 274 OFFCURVE",
"402 256 CURVE",
"399 252 OFFCURVE",
"396 246 OFFCURVE",
"393 239 CURVE",
"499 239 LINE"
);
},
{
closed = 1;
nodes = (
"79 239 LINE",
"75 233 OFFCURVE",
"75 218 OFFCURVE",
"79 212 CURVE SMOOTH",
"99 164 OFFCURVE",
"178 182 OFFCURVE",
"164 239 CURVE",
"243 239 LINE",
"243 137 LINE",
"246 140 OFFCURVE",
"253 144 OFFCURVE",
"260 147 CURVE",
"280 153 OFFCURVE",
"297 140 OFFCURVE",
"297 123 CURVE SMOOTH",
"300 102 OFFCURVE",
"280 89 OFFCURVE",
"263 93 CURVE SMOOTH",
"253 96 OFFCURVE",
"249 99 OFFCURVE",
"243 107 CURVE",
"243 0 LINE",
"85 0 LINE SMOOTH",
"52 0 OFFCURVE",
"28 -3 OFFCURVE",
"10 13 CURVE SMOOTH",
"-3 31 OFFCURVE",
"0 59 OFFCURVE",
"0 89 CURVE SMOOTH",
"0 239 LINE"
);
}
);
width = 499;
}
);
unicode = F017;
},
{
glyphname = uniF018;
lastChange = "2015-05-22 14:10:38 +0000";
layers = (
{
layerId = "2A1D5BD5-C215-4E1E-88D2-0A6FA643BDC9";
name = Regular;
paths = (
{
closed = 1;
nodes = (
"417 500 LINE SMOOTH",
"429 500 OFFCURVE",
"441 501 OFFCURVE",
"451 499 CURVE SMOOTH",
"461 497 OFFCURVE",
"469 493 OFFCURVE",
"476 488 CURVE SMOOTH",
"506 467 OFFCURVE",
"500 430 OFFCURVE",
"500 379 CURVE SMOOTH",
"500 128 LINE SMOOTH",
"500 80 OFFCURVE",
"506 38 OFFCURVE",
"480 15 CURVE SMOOTH",
"473 10 OFFCURVE",
"465 5 OFFCURVE",
"455 2 CURVE SMOOTH",
"445 0 OFFCURVE",
"432 0 OFFCURVE",
"419 0 CURVE SMOOTH",
"77 0 LINE SMOOTH",
"69 1 OFFCURVE",
"60 1 OFFCURVE",
"51 1 CURVE",
"25 5 OFFCURVE",
"7 23 OFFCURVE",
"2 47 CURVE SMOOTH",
"-1 57 OFFCURVE",
"0 70 OFFCURVE",
"0 83 CURVE SMOOTH",
"0 408 LINE SMOOTH",
"0 430 OFFCURVE",
"0 452 OFFCURVE",
"6 466 CURVE SMOOTH",
"13 481 OFFCURVE",
"27 493 OFFCURVE",
"43 498 CURVE",
"48 499 OFFCURVE",
"53 499 OFFCURVE",
"58 500 CURVE"
);
},
{
closed = 1;
nodes = (
"122 263 LINE",
"119.287 255.428 LINE SMOOTH",
"117 250 OFFCURVE",
"112.333 244.486 OFFCURVE",
"109.472 238.764 CURVE",
"102.948 222.408 OFFCURVE",
"114.566 210.733 OFFCURVE",
"129.584 208.966 CURVE SMOOTH",
"143.53 207.325 OFFCURVE",
"155.437 222.345 OFFCURVE",
"151.182 237.662 CURVE",
"147.854 246.481 OFFCURVE",
"140.565 251.911 OFFCURVE",
"137.849 263 CURVE",
"238 263 LINE",
"238 323.981 LINE",
"227.372 322.773 OFFCURVE",
"215.723 325.152 OFFCURVE",
"208.35 329.76 CURVE",
"164.99 354.688 OFFCURVE",
"184.095 426.078 OFFCURVE",
"238 418.091 CURVE",
"238 480 LINE",
"97 480 LINE SMOOTH",
"64.792 480 OFFCURVE",
"43.1947 481.8 OFFCURVE",
"30.8597 466.821 CURVE SMOOTH",
"18.2501 452.407 OFFCURVE",
"21 431.325 OFFCURVE",
"21 401 CURVE SMOOTH",
"21 263 LINE"
);
},
{
closed = 1;
nodes = (
"263 377.747 LINE",
"252.661 381.566 OFFCURVE",
"245.939 390.861 OFFCURVE",
"236.787 393.149 CURVE SMOOTH",
"222.463 396.519 OFFCURVE",
"207.305 384.536 OFFCURVE",
"208.969 369.552 CURVE",
"211.629 355.442 OFFCURVE",
"222.35 344.721 OFFCURVE",
"237.419 349.743 CURVE",
"246.801 352.104 OFFCURVE",
"251.624 359.321 OFFCURVE",
"263 364.542 CURVE",
"263 263 LINE",
"323.669 263 LINE",
"322.57 270.982 OFFCURVE",
"323.854 280.018 OFFCURVE",
"326.404 285.97 CURVE",
"344.211 333.118 OFFCURVE",
"421.618 320.917 OFFCURVE",
"417.592 263 CURVE",
"480 263 LINE",
"480 404 LINE SMOOTH",
"480 436.217 OFFCURVE",
"481.8 456.92 OFFCURVE",
"466.692 470.251 CURVE",
"452.417 481.844 OFFCURVE",
"431.217 480 OFFCURVE",
"401 480 CURVE SMOOTH",
"263 480 LINE"
);
},
{
closed = 1;
nodes = (
"263 176.819 LINE",
"320.864 183.094 OFFCURVE",
"334.976 107.174 OFFCURVE",
"288.021 86.4266 CURVE SMOOTH",
"281.953 83.8257 OFFCURVE",
"271.961 81.8397 OFFCURVE",
"263 82.853 CURVE",
"263 21 LINE",
"400 21 LINE SMOOTH",
"432.355 21 OFFCURVE",
"451.507 18.2641 OFFCURVE",
"467.799 31.8411 CURVE SMOOTH",
"481.799 44.0931 OFFCURVE",
"480 64.783 OFFCURVE",
"480 96 CURVE SMOOTH",
"480 238 LINE",
"377.458 238 LINE",
"382.679 249.376 OFFCURVE",
"389.896 254.199 OFFCURVE",
"392.149 263.213 CURVE",
"397.21 279.27 OFFCURVE",
"385.619 290.139 OFFCURVE",
"371.688 291.01 CURVE SMOOTH",
"356.413 291.858 OFFCURVE",
"345.485 279.368 OFFCURVE",
"348.881 264.085 CURVE",
"352.064 255.736 OFFCURVE",
"358.928 250.514 OFFCURVE",
"363.969 238 CURVE",
"263 238 LINE"
);
},
{
closed = 1;
nodes = (
"21 100 LINE SMOOTH",
"21 69.6753 OFFCURVE",
"18.2501 48.5928 OFFCURVE",
"30.7629 34.2925 CURVE",
"43.2111 18.3012 OFFCURVE",
"65.7011 21 OFFCURVE",
"97 21 CURVE SMOOTH",
"238 21 LINE",
"238 123.542 LINE",
"249.376 118.321 OFFCURVE",
"254.199 111.104 OFFCURVE",
"263.213 108.851 CURVE SMOOTH",
"278.646 104.566 OFFCURVE",
"289.264 114.426 OFFCURVE",
"291.039 128.62 CURVE SMOOTH",
"292.696 142.709 OFFCURVE",
"279.368 154.479 OFFCURVE",
"265.145 151.133 CURVE SMOOTH",
"254.272 148.716 OFFCURVE",
"248.325 141.227 OFFCURVE",
"238 136.34 CURVE",
"238 238 LINE",
"176.623 238 LINE",
"181.204 179.156 OFFCURVE",
"107.214 164.933 OFFCURVE",
"86.4266 211.979 CURVE",
"83.7934 218.978 OFFCURVE",
"81.8306 229.04 OFFCURVE",
"82.8498 238 CURVE",
"21 238 LINE"
);
}
);
width = 501;
}
);
unicode = F018;
},
{
glyphname = uniF019;
lastChange = "2015-05-22 13:28:47 +0000";
layers = (
{
layerId = "2A1D5BD5-C215-4E1E-88D2-0A6FA643BDC9";
name = Regular;
paths = (
{
closed = 1;
nodes = (
"306 147 LINE",
"152 0 LINE",
"152 147 LINE",
"119 147 LINE SMOOTH",
"53 147 OFFCURVE",
"0 202 OFFCURVE",
"0 267 CURVE SMOOTH",
"0 381 LINE SMOOTH",
"0 448 OFFCURVE",
"53 501 OFFCURVE",
"119 501 CURVE SMOOTH",
"412 501 LINE SMOOTH",
"477 501 OFFCURVE",
"530 448 OFFCURVE",
"530 381 CURVE SMOOTH",
"530 267 LINE SMOOTH",
"530 202 OFFCURVE",
"477 147 OFFCURVE",
"412 147 CURVE SMOOTH"
);
}
);
width = 530;
}
);
unicode = F019;
},
{
glyphname = uniF01A;
lastChange = "2015-05-22 14:08:37 +0000";
layers = (
{
layerId = "2A1D5BD5-C215-4E1E-88D2-0A6FA643BDC9";
name = Regular;
paths = (
{
closed = 1;
nodes = (
"468 177 OFFCURVE",
"500 210 OFFCURVE",
"500 281 CURVE SMOOTH",
"500 370 LINE SMOOTH",
"500 432 OFFCURVE",
"468 471 OFFCURVE",
"408 471 CURVE SMOOTH",
"135 471 LINE SMOOTH",
"64 471 OFFCURVE",
"33 432 OFFCURVE",
"33 370 CURVE SMOOTH",
"33 281 LINE SMOOTH",
"33 210 OFFCURVE",
"64 177 OFFCURVE",
"135 177 CURVE SMOOTH",
"188 177 LINE",
"188 81 LINE",
"288 177 LINE",
"398 177 LINE SMOOTH"
);
},
{
closed = 1;
nodes = (
"306 147 LINE",
"152 0 LINE",
"152 147 LINE",
"119 147 LINE SMOOTH",
"53 147 OFFCURVE",
"0 202 OFFCURVE",
"0 267 CURVE SMOOTH",
"0 381 LINE SMOOTH",
"0 448 OFFCURVE",
"53 501 OFFCURVE",
"119 501 CURVE SMOOTH",
"412 501 LINE SMOOTH",
"477 501 OFFCURVE",
"530 448 OFFCURVE",
"530 381 CURVE SMOOTH",
"530 267 LINE SMOOTH",
"530 202 OFFCURVE",
"477 147 OFFCURVE",
"412 147 CURVE SMOOTH"
);
}
);
width = 530;
}
);
unicode = F01A;
},
{
glyphname = uniF01B;
lastChange = "2015-05-22 13:43:57 +0000";
layers = (
{
layerId = "2A1D5BD5-C215-4E1E-88D2-0A6FA643BDC9";
name = Regular;
paths = (
{
closed = 1;
nodes = (
"0 404 LINE",
"95 404 LINE",
"95 309 LINE",
"309 309 LINE",
"309 404 LINE",
"404 404 LINE",
"404 0 LINE",
"0 0 LINE"
);
},
{
closed = 1;
nodes = (
"120 321 LINE SMOOTH",
"113 321 OFFCURVE",
"107 327 OFFCURVE",
"107 335 CURVE SMOOTH",
"107 427 LINE SMOOTH",
"107 434 OFFCURVE",
"113 440 OFFCURVE",
"120 440 CURVE SMOOTH",
"130 440 LINE",
"159 493 LINE SMOOTH",
"162 497 OFFCURVE",
"166 499 OFFCURVE",
"170 499 CURVE SMOOTH",
"234 499 LINE SMOOTH",
"239 499 OFFCURVE",
"244 497 OFFCURVE",
"246 493 CURVE SMOOTH",
"276 440 LINE",
"285 440 LINE SMOOTH",
"293 440 OFFCURVE",
"297 434 OFFCURVE",
"297 427 CURVE SMOOTH",
"297 335 LINE SMOOTH",
"297 327 OFFCURVE",
"293 321 OFFCURVE",
"285 321 CURVE SMOOTH"
);
},
{
closed = 1;
nodes = (
"226 448 OFFCURVE",
"221 452 OFFCURVE",
"214 452 CURVE SMOOTH",
"191 452 LINE SMOOTH",
"184 452 OFFCURVE",
"178 448 OFFCURVE",
"178 444 CURVE SMOOTH",
"178 436 LINE SMOOTH",
"178 432 OFFCURVE",
"184 428 OFFCURVE",
"191 428 CURVE SMOOTH",
"214 428 LINE SMOOTH",
"221 428 OFFCURVE",
"226 432 OFFCURVE",
"226 436 CURVE SMOOTH",
"226 444 LINE SMOOTH"
);
}
);
width = 404;
}
);
unicode = F01B;
},
{
glyphname = uniF01C;
lastChange = "2015-05-22 13:44:00 +0000";
layers = (
{
layerId = "2A1D5BD5-C215-4E1E-88D2-0A6FA643BDC9";
name = Regular;
paths = (
{
closed = 1;
nodes = (
"0 404 LINE",
"95 404 LINE",
"95 357 LINE",
"48 357 LINE",
"48 47 LINE",
"357 47 LINE",
"357 357 LINE",
"309 357 LINE",
"309 404 LINE",
"404 404 LINE",
"404 0 LINE",
"0 0 LINE"
);
},
{
closed = 1;
nodes = (
"120 321 LINE SMOOTH",
"113 321 OFFCURVE",
"107 327 OFFCURVE",
"107 335 CURVE SMOOTH",
"107 427 LINE SMOOTH",
"107 434 OFFCURVE",
"113 440 OFFCURVE",
"120 440 CURVE SMOOTH",
"130 440 LINE",
"159 493 LINE SMOOTH",
"162 497 OFFCURVE",
"166 499 OFFCURVE",
"170 499 CURVE SMOOTH",
"234 499 LINE SMOOTH",
"239 499 OFFCURVE",
"244 497 OFFCURVE",
"246 493 CURVE SMOOTH",
"276 440 LINE",
"285 440 LINE SMOOTH",
"293 440 OFFCURVE",
"297 434 OFFCURVE",
"297 427 CURVE SMOOTH",
"297 335 LINE SMOOTH",
"297 327 OFFCURVE",
"293 321 OFFCURVE",
"285 321 CURVE SMOOTH"
);
},
{
closed = 1;
nodes = (
"226 448 OFFCURVE",
"221 452 OFFCURVE",
"214 452 CURVE SMOOTH",
"191 452 LINE SMOOTH",
"184 452 OFFCURVE",
"178 448 OFFCURVE",
"178 444 CURVE SMOOTH",
"178 436 LINE SMOOTH",
"178 432 OFFCURVE",
"184 428 OFFCURVE",
"191 428 CURVE SMOOTH",
"214 428 LINE SMOOTH",
"221 428 OFFCURVE",
"226 432 OFFCURVE",
"226 436 CURVE SMOOTH",
"226 444 LINE SMOOTH"
);
}
);
width = 404;
}
);
unicode = F01C;
},
{
glyphname = uniF01D;
lastChange = "2015-05-22 14:13:35 +0000";
layers = (
{
layerId = "2A1D5BD5-C215-4E1E-88D2-0A6FA643BDC9";
name = Regular;
paths = (
{
closed = 1;
nodes = (
"391 0 LINE",
"40 0 LINE SMOOTH",
"17 0 OFFCURVE",
"0 17 OFFCURVE",
"0 40 CURVE SMOOTH",
"0 459 LINE SMOOTH",
"0 480 OFFCURVE",
"17 499 OFFCURVE",
"40 499 CURVE SMOOTH",
"445 499 LINE",
"445 54 LINE",
"391 54 LINE"
);
},
{
closed = 1;
nodes = (
"54 476 LINE SMOOTH",
"36 476 OFFCURVE",
"31 473 OFFCURVE",
"25 459 CURVE",
"391 459 LINE",
"391 77 LINE",
"422 77 LINE",
"422 476 LINE"
);
}
);
width = 445;
}
);
unicode = F01D;
},
{
glyphname = uniF01E;
lastChange = "2015-05-22 14:19:29 +0000";
layers = (
{
layerId = "2A1D5BD5-C215-4E1E-88D2-0A6FA643BDC9";
name = Regular;
paths = (
{
closed = 1;
nodes = (
"391 0 LINE",
"40 0 LINE SMOOTH",
"17 0 OFFCURVE",
"0 17 OFFCURVE",
"0 40 CURVE SMOOTH",
"0 459 LINE SMOOTH",
"0 480 OFFCURVE",
"17 499 OFFCURVE",
"40 499 CURVE SMOOTH",
"445 499 LINE",
"445 54 LINE",
"391 54 LINE"
);
},
{
closed = 1;
nodes = (
"54 476 LINE SMOOTH",
"36 476 OFFCURVE",
"31 473 OFFCURVE",
"25 459 CURVE",
"391 459 LINE",
"391 77 LINE",
"422 77 LINE",
"422 476 LINE"
);
},
{
closed = 1;
nodes = (
"25 45 LINE SMOOTH",
"25 34 OFFCURVE",
"34 25 OFFCURVE",
"45 25 CURVE SMOOTH",
"368 25 LINE",
"368 434 LINE",
"25 434 LINE"
);
}
);
width = 445;
}
);
unicode = F01E;
},
{
glyphname = uniF01F;
lastChange = "2015-05-22 14:13:27 +0000";
layers = (
{
layerId = "2A1D5BD5-C215-4E1E-88D2-0A6FA643BDC9";
name = Regular;
paths = (
{
closed = 1;
nodes = (
"499 212 LINE",
"420 212 LINE",
"415 191 OFFCURVE",
"408 172 OFFCURVE",
"397 154 CURVE",
"453 100 LINE",
"399 46 LINE",
"344 102 LINE",
"327 91 OFFCURVE",
"308 83 OFFCURVE",
"287 78 CURVE",
"287 0 LINE",
"212 0 LINE",
"212 78 LINE",
"192 82 OFFCURVE",
"172 91 OFFCURVE",
"156 102 CURVE",
"100 46 LINE",
"46 100 LINE",
"102 154 LINE",
"91 172 OFFCURVE",
"83 191 OFFCURVE",
"78 212 CURVE",
"0 212 LINE",
"0 287 LINE",
"78 287 LINE",
"83 307 OFFCURVE",
"92 326 OFFCURVE",
"102 343 CURVE",
"46 399 LINE",
"100 452 LINE",
"156 397 LINE",
"172 407 OFFCURVE",
"192 415 OFFCURVE",
"212 419 CURVE",
"212 499 LINE",
"287 499 LINE",
"287 419 LINE",
"308 415 OFFCURVE",
"327 407 OFFCURVE",
"344 397 CURVE",
"399 452 LINE",
"453 399 LINE",
"397 343 LINE",
"408 326 OFFCURVE",
"415 307 OFFCURVE",
"420 287 CURVE",
"499 287 LINE"
);
},
{
closed = 1;
nodes = (
"198 343 OFFCURVE",
"156 301 OFFCURVE",
"156 249 CURVE SMOOTH",
"156 197 OFFCURVE",
"198 156 OFFCURVE",
"249 156 CURVE SMOOTH",
"302 156 OFFCURVE",
"343 197 OFFCURVE",
"343 249 CURVE SMOOTH",
"343 301 OFFCURVE",
"302 343 OFFCURVE",
"249 343 CURVE SMOOTH"
);
}
